<svg width="797" height="749" viewBox="0 0 797 749" fill="none" xmlns="http://www.w3.org/2000/svg">
<circle cx="396" cy="358" r="350" fill="#0E5476"/>
<g filter="url(#filter0_d_79_946)">
<path d="M581.83 60.8311C680.504 122.724 746.108 232.472 746.108 357.544C746.108 550.844 589.408 707.544 396.108 707.544C220.604 707.544 75.2715 578.367 50 409.905L221.82 206.124L480 222.5L581.83 60.8311Z" fill="#1F6E95"/>
</g>
<g filter="url(#filter1_d_79_946)">
<path d="M705.271 193C731.489 242.081 746.354 298.141 746.354 357.673C746.354 550.973 589.653 707.673 396.354 707.673C250.592 707.673 125.642 618.57 73 491.86L232.354 324.673L519.5 374.358L705.271 193Z" fill="#1EA2BD"/>
</g>
<g filter="url(#filter2_d_79_946)">
<path d="M745.671 350.71C745.722 353.183 745.75 355.661 745.75 358.146C745.75 551.446 589.05 708.146 395.75 708.146C297.719 708.146 209.103 667.842 145.563 602.902L243.204 466.146L470.324 536.931L745.671 350.71Z" fill="#6CE5E8"/>
</g>
<defs>
<filter id="filter0_d_79_946" x="0" y="0.831055" width="796.108" height="746.713" filterUnits="userSpaceOnUse" color-interpolation-filters="sRGB">
<feFlood flood-opacity="0" result="BackgroundImageFix"/>
<feColorMatrix in="SourceAlpha" type="matrix" values="0 0 0 0 0 0 0 0 0 0 0 0 0 0 0 0 0 0 127 0" result="hardAlpha"/>
<feOffset dy="-10"/>
<feGaussianBlur stdDeviation="25"/>
<feComposite in2="hardAlpha" operator="out"/>
<feColorMatrix type="matrix" values="0 0 0 0 0 0 0 0 0 0 0 0 0 0 0 0 0 0 0.1 0"/>
<feBlend mode="normal" in2="BackgroundImageFix" result="effect1_dropShadow_79_946"/>
<feBlend mode="normal" in="SourceGraphic" in2="effect1_dropShadow_79_946" result="shape"/>
</filter>
<filter id="filter1_d_79_946" x="23" y="133" width="773.354" height="614.673" filterUnits="userSpaceOnUse" color-interpolation-filters="sRGB">
<feFlood flood-opacity="0" result="BackgroundImageFix"/>
<feColorMatrix in="SourceAlpha" type="matrix" values="0 0 0 0 0 0 0 0 0 0 0 0 0 0 0 0 0 0 127 0" result="hardAlpha"/>
<feOffset dy="-10"/>
<feGaussianBlur stdDeviation="25"/>
<feComposite in2="hardAlpha" operator="out"/>
<feColorMatrix type="matrix" values="0 0 0 0 0 0 0 0 0 0 0 0 0 0 0 0 0 0 0.1 0"/>
<feBlend mode="normal" in2="BackgroundImageFix" result="effect1_dropShadow_79_946"/>
<feBlend mode="normal" in="SourceGraphic" in2="effect1_dropShadow_79_946" result="shape"/>
</filter>
<filter id="filter2_d_79_946" x="95.5635" y="290.71" width="700.187" height="457.437" filterUnits="userSpaceOnUse" color-interpolation-filters="sRGB">
<feFlood flood-opacity="0" result="BackgroundImageFix"/>
<feColorMatrix in="SourceAlpha" type="matrix" values="0 0 0 0 0 0 0 0 0 0 0 0 0 0 0 0 0 0 127 0" result="hardAlpha"/>
<feOffset dy="-10"/>
<feGaussianBlur stdDeviation="25"/>
<feComposite in2="hardAlpha" operator="out"/>
<feColorMatrix type="matrix" values="0 0 0 0 0 0 0 0 0 0 0 0 0 0 0 0 0 0 0.1 0"/>
<feBlend mode="normal" in2="BackgroundImageFix" result="effect1_dropShadow_79_946"/>
<feBlend mode="normal" in="SourceGraphic" in2="effect1_dropShadow_79_946" result="shape"/>
</filter>
</defs>
</svg>
